<?xml version="1.0" encoding="UTF-8"?>
<svg id="Calque_1" data-name="Calque 1" xmlns="http://www.w3.org/2000/svg" viewBox="0 0 1332.18 1092.25">
  <defs>
    <style>
      .cls-1 {
        fill: none;
      }

      .cls-2 {
        fill: #171b1b;
      }

      .cls-3 {
        fill: #a42724;
      }
    </style>
  </defs>
  <g>
    <path class="cls-3" d="M664.09,206l45.05-41.95c101.61-86.8,231.8-138.33,364.2-155.8,26.23-3.46,64-8.49,89.73-8.25,17.7.17,34.28,11.01,39.66,28.34,3.21,267.3.34,535.2,1.44,802.73-.34,20.37-10.79,35.41-31.61,38.39-25.22,3.61-55,1.81-81.23,4.77-86.69,9.76-166.29,38.64-242.73,79.19l-8.51,6.54c49.21-10.9,99.21-25.19,149.24-31.73,85.94-11.22,161.37-6.21,245.99,3.17,4.68.52,12.4-2.57,18.75.57V116c14.52,4.19,39.34,2.25,52.45,8.13,1.19.54,18.84,16.09,19.61,17.32,2.47,3.96,5.43,16.57,5.92,21.56l.11,810.07c-2.57,32.73-15.87,44.91-48.84,42.65-24.36-1.67-51.36-9.05-76.27-11.72-147.23-15.79-311.34,5.27-450.02,55.94-25.24,9.22-71.91,35.09-96.96,32.04-.42-11.64.56-23.43.07-35.07-.11-2.62-2.07-5.19-2.07-5.93v-36c0-1.31-8.15-10.9-10-13,3.32-2.08,1.99-7.59,2.03-10.97,1.73-139.83-1.72-279.78.39-419.61l3.58-6.42,83.59-88.41c1.15-3.89,1.2-61.95.08-65.26-.95-2.79-11.44-7.84-15.36-12.64-27.69-33.92,6.42-82.74,47.06-65.06,22.5,9.79,32.57,40.16,18.35,61.08-3.36,4.95-18.66,14.49-19.39,16.62-4.11,12.04,1.68,51.36-.28,67.72-1.16,9.67-21.53,30.62-29.02,38.98-18.2,20.28-38.32,39.14-57.03,58.97v425c12.35-5.92,19.2-18.98,31.16-25.84l2.79-5.21.46-353.54,109.38-118.75c3.82-6.97-2.26-15.41-1-24.71,5.05-37.39,51.32-52.3,74.08-19.83,16.77,23.92,4.28,61.59-26.04,65.69-8.21,1.11-21.17-2.71-25.89.02l-100.94,109.16v319l76.66-50.34c75.92-40.99,156.63-71.22,242.63-83.37,22.76-3.22,47.67-3.03,69.61-6.39,2.93-.45,11.11-4.71,11.11-6.89V66c-91.86,6.2-186.22,23.23-269.03,63.97l.94,146.69c34.58,12.61,37.54,62.92,3.46,77.71-49.7,21.56-80.9-52.84-33.29-75.71,4.29-45.7-1.22-90.95-.11-136.67-63.03,33.68-116.17,81.52-165.98,132-3.94-1.48-3.72-5.08-4.67-8.32-5.66-19.39-8.18-40.12-13.33-59.68ZM877.49,327.42c14.14-17.54-14.8-39.65-25.5-20.52-10.85,19.4,14.72,33.89,25.5,20.52ZM769.08,371.53c0-8.83-7.16-15.99-15.99-15.99s-15.99,7.16-15.99,15.99,7.16,15.99,15.99,15.99,15.99-7.16,15.99-15.99ZM881.47,478.27c0-8.82-7.15-15.97-15.97-15.97s-15.97,7.15-15.97,15.97,7.15,15.97,15.97,15.97,15.97-7.15,15.97-15.97Z"/>
    <path class="cls-1" d="M877.49,327.42c-10.77,13.36-36.35-1.12-25.5-20.52,10.7-19.12,39.64,2.98,25.5,20.52Z"/>
    <circle class="cls-1" cx="865.49" cy="478.27" r="15.97"/>
    <circle class="cls-1" cx="753.1" cy="371.53" r="15.99"/>
    <path class="cls-3" d="M1080.08,153.99l.09,411.09c4.97,117.53-119.79,252.11-240.6,210.43-11.85-4.09-50.25-26.82-49.04-40.19.36-3.98,16.62-33.95,19.96-39.93,11.2-20.04,24.9-38.4,37.64-57.39,2.9-2.01,17.38,17.56,22.09,20.86,28.22,19.78,64.83,12.04,85.82-13.92,26.66-32.97,27.18-73.71,30.13-113.87l.16-354.86,93.75-22.23Z"/>
  </g>
  <g>
    <path class="cls-2" d="M664.09,206c5.15,19.56,7.68,40.29,13.33,59.68.95,3.24.73,6.84,4.67,8.32l-.11,222.89c-1.63,10.34-24.15,27.13-31.89,35.11v-255c-115.02-137.72-288.95-203.71-466-211v731c0,.72,3.81,6.16,4.94,7.06,6.92,5.51,39.95,4.71,51.8,6.2,53.89,6.79,111.23,17.88,161.72,37.89.62.25,6.96,8.18,11.54,3.86,2.98-2.81-3.77-71.7-2.21-81.81-52.53-18.41-106.44-32.84-161.8-40.19V152c11.98,4,29.12,2.79,40.58,6.08,2.31.66.96,1.18,8.03,2.67,85.11,18.01,162.18,50.5,237.39,93.25v100c-59.53-34.55-122.92-63.21-190-80v132c57.02,14.09,113.81,36.82,164,67v97c-52.57-25.21-106.45-51-164-62v140c68.38,16.15,134.26,42.99,194.16,79.33l-.17,102.68-99.98-48,2.42,76.56,4.85,7.15c49.84,23.1,96.75,51.5,140.72,84.28v-263c0-1.7-21.03-20.81-21.95-26.05l-.42-161.58c-14.83-11.17-28.99-23.18-27.5-44.09,4.29-60.18,97.29-46.43,78.31,18.15-4.38,14.9-23.41,22.07-24.45,27.55l-.09,144.12c1.47,11.07,25.48,24.53,26.15,37.85l-.08,291.63c9.22,8.39,21.95,18.26,30.04,27.41,1.85,2.1,10,11.69,10,13v36c0,.74,1.96,3.31,2.07,5.93.48,11.64-.49,23.44-.07,35.07-19.1-2.33-61.84-24.46-82.97-32.03-138.79-49.74-288.77-69.83-436.02-57.95-31.45,2.54-73.05,14.51-102.03,14.14-27.29-.35-37.13-20.72-39.05-45.08l-.02-804.16c3.32-47.98,35.6-45.19,74.94-49.02l3.13,13.15.03,800.98,98.91-10.09c87.2-3.77,168.32,4.83,253.11,23.06,17.28,3.71,45.52,13.94,60.96,15.07,1.26.09,3.29.54,3-1.03-40.67-22.7-83.46-42.89-128.46-57.54-72.19-23.5-124.37-25.28-198.5-31.5-17.21-1.45-29.83-6.12-37.13-22.87-4.12-272.15-1.28-545.17-1.43-817.62C135.74-4.22,168.18.58,195.17,1.92c171.38,8.5,352.24,76.46,468.92,204.08ZM594.67,457.9c0-8.72-7.07-15.78-15.78-15.78s-15.78,7.07-15.78,15.78,7.07,15.78,15.78,15.78,15.78-7.07,15.78-15.78ZM415.53,702.42c-19.22,4.31-16.67,38.07,5.59,39.7,31.02,2.27,25.44-46.66-5.59-39.7Z"/>
    <path class="cls-1" d="M648.09,1002c-8.09-9.15-20.81-19.02-30.04-27.41l.08-291.63c-.67-13.32-24.68-26.78-26.15-37.85l.09-144.12c1.04-5.47,20.08-12.65,24.45-27.55,18.98-64.59-74.02-78.34-78.31-18.15-1.49,20.91,12.67,32.92,27.5,44.09l.42,161.58c.93,5.24,21.95,24.34,21.95,26.05v263c-43.97-32.78-90.89-61.18-140.72-84.28l-4.85-7.15-2.42-76.56,99.98,48,.17-102.68c-59.91-36.34-125.78-63.18-194.16-79.33v-140c57.55,11,111.43,36.79,164,62v-97c-50.19-30.18-106.98-52.91-164-67v-132c67.08,16.79,130.47,45.45,190,80v-100c-75.21-42.75-152.28-75.23-237.39-93.25-7.07-1.5-5.72-2.01-8.03-2.67-11.46-3.29-28.6-2.08-40.58-6.08v578c55.36,7.35,109.27,21.78,161.8,40.19-1.56,10.12,5.18,79.01,2.21,81.81-4.59,4.33-10.92-3.61-11.54-3.86-50.49-20.02-107.83-31.1-161.72-37.89-11.85-1.49-44.88-.69-51.8-6.2-1.13-.9-4.94-6.33-4.94-7.06V66c177.05,7.29,350.98,73.28,466,211v255c7.74-7.99,30.25-24.78,31.89-35.11l.11-222.89c49.81-50.48,102.95-98.32,165.98-132-1.11,45.72,4.4,90.97.11,136.67-47.61,22.86-16.41,97.27,33.29,75.71,34.08-14.79,31.12-65.1-3.46-77.71l-.94-146.69c82.81-40.75,177.16-57.78,269.03-63.97v735c0,2.18-8.18,6.44-11.11,6.89-21.94,3.36-46.85,3.18-69.61,6.39-85.99,12.16-166.71,42.38-242.63,83.37l-76.66,50.34v-319l100.94-109.16c4.71-2.73,17.68,1.09,25.89-.02,30.32-4.1,42.81-41.77,26.04-65.69-22.77-32.47-69.03-17.55-74.08,19.83-1.26,9.3,4.82,17.74,1,24.71l-109.38,118.75-.46,353.54-2.79,5.21c-11.96,6.85-18.81,19.92-31.16,25.84v-425c18.71-19.83,38.83-38.69,57.03-58.97,7.5-8.36,27.87-29.3,29.02-38.98,1.96-16.36-3.84-55.68.28-67.72.73-2.13,16.03-11.67,19.39-16.62,14.21-20.92,4.15-51.29-18.35-61.08-40.64-17.68-74.75,31.14-47.06,65.06,3.92,4.8,14.41,9.85,15.36,12.64,1.13,3.31,1.08,61.37-.08,65.26l-83.59,88.41-3.58,6.42c-2.1,139.83,1.34,279.78-.39,419.61-.04,3.38,1.28,8.89-2.03,10.97ZM1080.08,153.99l-93.75,22.23-.16,354.86c-2.95,40.16-3.47,80.9-30.13,113.87-20.99,25.96-57.6,33.7-85.82,13.92-4.71-3.3-19.19-22.87-22.09-20.86-12.74,18.99-26.44,37.34-37.64,57.39-3.34,5.98-19.6,35.95-19.96,39.93-1.21,13.37,37.2,36.1,49.04,40.19,120.81,41.67,245.57-92.91,240.6-210.43l-.09-411.09Z"/>
    <path class="cls-1" d="M415.53,702.42c31.04-6.96,36.62,41.97,5.59,39.7-22.26-1.63-24.81-35.39-5.59-39.7Z"/>
    <circle class="cls-1" cx="578.88" cy="457.9" r="15.78"/>
  </g>
</svg>