<?xml version="1.0" encoding="UTF-8"?>
<svg id="Calque_1" data-name="Calque 1" xmlns="http://www.w3.org/2000/svg" viewBox="0 0 1222.07 1337.37">
  <defs>
    <style>
      .cls-1 {
        fill: #c62828;
      }

      .cls-2 {
        fill: #121212;
      }
    </style>
  </defs>
  <path class="cls-1" d="M564,661.37c-55.45-.24-56.26-84.01-.09-86.09.13-68.91,25.4-128.1,69.07-179.94,50.71-60.21,116.74-93.46,109-184.94-8.59-101.45-127.52-149.67-211.36-99.42-64.48,38.65-70.11,151.46,19.39,154.38,1.11-6.22-3.17-11.42-3.84-17.15-8.69-74.27,94.11-86,110.9-16.9,19.42,79.93-63.36,132.59-135.05,116.07,10.56,54.67-16.82,103.19-77.08,98.06-3.77-.32-17.63-1.35-16.77-6.86,40.65-58.77-14.34-125.29-30.69-181.69-30.88-106.51,32.39-210.75,134.99-244.07,163.75-53.18,322.21,65.28,303.29,239.29-9.72,89.37-59.41,128.39-114.77,189.23-35.84,39.38-59.94,77.89-56.88,133.95,53.9,5.3,54.6,82.22-.16,87.22l-.14,579.65c-5.29,45.34-56.17,88.78-99.78,95.22v-676Z"/>
  <g>
    <path class="cls-2" d="M126,384.37c0-.25-3.84-4.64.97-4.94.48-.03,3.39,1.96,5.97,1.98,59.98.47,133.49,17.93,190.1,37.92,74.84,26.43,148.84,68.83,202.93,127.04-38.74,26.2-54.41,71.88-30.3,114.33,7.58,13.34,18.67,20.45,28.33,31.67v509c-3.12.54-4.63-.29-7.1-1.9-14.6-9.52-30.7-25.02-46.27-35.73-101.14-69.57-221.08-111.34-344.63-114.37V384.37Z"/>
    <path class="cls-2" d="M82,493.37v596c156.33-2.92,319.32,45.85,438,147.98-162.37-63.98-346.23-81.36-517.98-47.97.62-2-2.02-4.28-2.02-5.01V490.37l3.31-2.68,78.69,5.68Z"/>
  </g>
  <path class="cls-2" d="M753.52,483.89l417.45-.48c27.93,1.91,49.21,25.15,51.11,52.89l-1.44,658.7c-6.65,21.55-23.95,40.56-47.55,42.45l-422.09-.08c-21.51-3.89-39.3-20.61-44.06-41.94-6.86-166.46-.89-334.23-3.04-501.17,8.02-15.64,21.88-22.37,29.82-40.18,16.52-37.06,7.31-67.84-18.63-96.8-5.48-6.11-11.07-3.76-11.26-14.88-.46-26.94,22.33-55.57,49.7-58.52ZM969.76,521.62c-3.83-6.08-21.49,3.14-10.91,11.93,7.79,6.47,14.16-6.76,10.91-11.93ZM1164,567.27h-400v566.1h400v-566.1ZM988.99,1185.37c0-14.05-11.39-25.44-25.44-25.44s-25.44,11.39-25.44,25.44,11.39,25.44,25.44,25.44,25.44-11.39,25.44-25.44Z"/>
</svg>